<?xml version="1.0" encoding="UTF-8"?>
<svg id="Layer_1" data-name="Layer 1" xmlns="http://www.w3.org/2000/svg" viewBox="0 0 293.65 90.35">
  <defs>
    <style>
      .cls-1 {
        fill: #000;
        stroke-width: 0px;
      }
    </style>
  </defs>
  <path class="cls-1" d="M60.86,61.09c-.89,1.73-2.16,3.17-3.81,4.32s-3.64,2.02-5.97,2.59c-2.32.58-4.9.86-7.73.86h-23.94V18.47h23.36c5.17,0,9.23,1.18,12.18,3.53,2.95,2.35,4.42,5.52,4.42,9.5v.14c0,1.44-.18,2.71-.54,3.82-.36,1.1-.83,2.1-1.43,2.99-.6.89-1.29,1.67-2.07,2.34-.79.67-1.63,1.25-2.54,1.73,2.91,1.1,5.21,2.6,6.88,4.5,1.67,1.9,2.51,4.52,2.51,7.88v.14c0,2.3-.44,4.32-1.33,6.05ZM48.44,33.37c0-1.68-.62-2.96-1.87-3.85-1.25-.89-3.05-1.33-5.4-1.33h-10.94v10.66h10.22c2.45,0,4.39-.42,5.83-1.26,1.44-.84,2.16-2.2,2.16-4.07v-.14ZM51.25,53.53c0-1.68-.65-3.01-1.94-4-1.3-.98-3.38-1.48-6.26-1.48h-12.82v11.09h13.18c2.45,0,4.37-.44,5.76-1.33,1.39-.89,2.09-2.27,2.09-4.14v-.14Z"/>
  <path class="cls-1" d="M65.65,68.87V16.31h10.94v52.56h-10.94Z"/>
  <path class="cls-1" d="M117.74,52.02c-.02.38-.06.84-.11,1.37h-26.86c.53,2.5,1.62,4.38,3.28,5.65,1.66,1.27,3.71,1.91,6.16,1.91,1.82,0,3.46-.31,4.9-.94,1.44-.62,2.93-1.63,4.46-3.02l6.26,5.54c-1.82,2.26-4.03,4.02-6.62,5.29-2.59,1.27-5.64,1.91-9.14,1.91-2.88,0-5.56-.48-8.03-1.44-2.47-.96-4.61-2.33-6.41-4.1-1.8-1.77-3.2-3.88-4.21-6.3-1.01-2.42-1.51-5.12-1.51-8.1v-.14c0-2.74.47-5.33,1.4-7.78.94-2.45,2.24-4.58,3.92-6.41,1.68-1.82,3.68-3.26,6.01-4.32,2.33-1.06,4.91-1.58,7.74-1.58,3.22,0,6,.58,8.35,1.73,2.35,1.15,4.31,2.7,5.87,4.64,1.56,1.94,2.71,4.18,3.46,6.7.74,2.52,1.12,5.15,1.12,7.88v.14c0,.53-.01.98-.04,1.37ZM104.53,40.61c-1.39-1.51-3.24-2.27-5.54-2.27s-4.16.74-5.58,2.23c-1.42,1.49-2.34,3.48-2.77,5.98h16.49c-.34-2.45-1.2-4.43-2.59-5.94Z"/>
  <path class="cls-1" d="M145.21,68.87v-21.48c0-2.59-.58-4.54-1.73-5.85-1.15-1.32-2.78-1.98-4.9-1.98s-3.78.66-5,1.98c-1.22,1.32-1.84,3.27-1.84,5.85v21.48h-10.94V30.28h10.94v5.52c.62-.82,1.31-1.61,2.05-2.36.74-.75,1.57-1.41,2.48-1.99.91-.58,1.92-1.04,3.02-1.38,1.1-.34,2.35-.51,3.74-.51,4.18,0,7.4,1.27,9.68,3.82,2.28,2.54,3.42,6.05,3.42,10.51v24.98h-10.94Z"/>
  <path class="cls-1" d="M188.4,68.87v-5.5c-1.34,1.81-2.96,3.3-4.86,4.47-1.9,1.17-4.28,1.75-7.16,1.75-2.26,0-4.44-.43-6.55-1.3-2.11-.86-3.98-2.15-5.62-3.85-1.63-1.7-2.94-3.79-3.92-6.26-.98-2.47-1.48-5.32-1.48-8.53v-.14c0-3.21.49-6.06,1.48-8.53.98-2.47,2.28-4.56,3.89-6.26,1.61-1.7,3.47-2.99,5.58-3.85,2.11-.86,4.32-1.3,6.62-1.3,2.93,0,5.34.57,7.24,1.71,1.9,1.14,3.49,2.48,4.79,4v-18.96h10.94v52.56h-10.94ZM188.55,49.5c0-1.6-.25-3.06-.76-4.39s-1.18-2.46-2.02-3.41c-.84-.94-1.82-1.67-2.95-2.17-1.13-.51-2.34-.76-3.64-.76s-2.51.25-3.64.76c-1.13.51-2.12,1.23-2.99,2.17-.86.94-1.55,2.07-2.05,3.37-.5,1.3-.76,2.78-.76,4.42v.14c0,1.6.25,3.06.76,4.39.5,1.33,1.19,2.46,2.05,3.41.86.94,1.86,1.67,2.99,2.17,1.13.51,2.34.76,3.64.76s2.51-.25,3.64-.76c1.13-.51,2.11-1.23,2.95-2.17.84-.94,1.51-2.08,2.02-3.41s.76-2.79.76-4.39v-.14Z"/>
  <path class="cls-1" d="M204.24,26.03v-9.72h11.52v9.72h-11.52ZM204.53,68.87V30.28h10.94v38.59h-10.94Z"/>
  <path class="cls-1" d="M239.88,25.27c-.77-.17-1.63-.25-2.59-.25-2.64,0-3.96,1.39-3.96,4.18v1.51l11.11-.02v8.93l-10.96.02v29.23h-10.94v-29.23h-4.54v-9h4.54v-2.45c0-4.27,1.02-7.4,3.06-9.4,2.04-1.99,5-2.99,8.89-2.99,1.73,0,3.2.1,4.43.29,1.22.19,2.34.46,3.35.79v9.07c-.82-.29-1.61-.52-2.38-.68Z"/>
  <path class="cls-1" d="M264.94,69.89c-.72,1.95-1.49,3.61-2.3,4.96-.82,1.36-1.72,2.46-2.7,3.32-.98.86-2.1,1.48-3.35,1.86-1.25.38-2.69.57-4.32.57-2.02,0-3.79-.24-5.33-.71-1.54-.48-3-1.12-4.39-1.93l3.67-7.86c.72.43,1.5.79,2.34,1.07.84.29,1.62.43,2.34.43.96,0,1.72-.18,2.27-.54.55-.36,1.07-1.01,1.55-1.96l-15.12-38.42h11.59l8.78,26.07,8.42-26.07h11.38l-14.83,39.21Z"/>
</svg>